<?xml version="1.0" standalone="no"?>
<!DOCTYPE svg PUBLIC "-//W3C//DTD SVG 20010904//EN"
 "http://www.w3.org/TR/2001/REC-SVG-20010904/DTD/svg10.dtd">
<svg version="1.0" xmlns="http://www.w3.org/2000/svg"
 width="429.000000pt" height="430.000000pt" viewBox="0 0 429.000000 430.000000"
 preserveAspectRatio="xMidYMid meet">

<g transform="translate(0.000000,430.000000) scale(0.100000,-0.100000)"
fill="#000000" stroke="none">
<path d="M0 2150 l0 -2150 2145 0 2145 0 0 2150 0 2150 -2145 0 -2145 0 0
-2150z m2453 1805 c62 -31 110 -73 134 -119 50 -97 25 -385 -39 -442 l-21 -19
7 140 c8 155 -7 267 -41 314 -10 14 -45 39 -77 55 -48 25 -69 29 -130 29 -40
0 -93 -4 -117 -7 l-44 -6 60 31 c124 66 173 70 268 24z m-1130 -200 c-16 -20
-30 -30 -32 -23 -2 7 1 14 8 16 6 2 8 9 5 14 -4 6 -2 8 3 5 6 -4 16 0 23 8 26
31 20 13 -7 -20z m1517 -9 c271 -56 505 -150 695 -277 123 -82 119 -73 111
-251 -13 -294 -25 -401 -56 -512 -51 -180 -75 -220 -224 -371 -118 -120 -139
-137 -216 -173 -162 -77 -302 -113 -440 -115 -83 -2 -102 1 -150 24 -30 14
-79 47 -107 73 -61 55 -65 67 -113 298 -44 211 -99 368 -156 445 -23 30 -23
32 -6 51 9 11 69 52 133 91 64 39 136 91 159 114 53 53 153 252 175 350 17 73
23 216 10 256 -6 19 -3 21 32 21 21 0 90 -11 153 -24z m-1750 -15 c0 -6 -4
-13 -10 -16 -5 -3 -10 1 -10 9 0 9 5 16 10 16 6 0 10 -4 10 -9z m445 -81 c3
-5 1 -10 -4 -10 -6 0 -11 5 -11 10 0 6 2 10 4 10 3 0 8 -4 11 -10z m251 -2
c-2 -7 -19 -58 -36 -113 -52 -164 -71 -213 -85 -219 -35 -13 -136 -18 -149 -7
-10 8 -16 9 -21 1 -8 -13 -25 -13 -25 1 0 5 5 7 12 3 7 -4 8 -3 4 5 -4 6 -12
9 -17 6 -5 -4 -12 1 -15 9 -13 33 73 130 219 247 93 75 125 94 113 67z m-819
-20 c-3 -8 -6 -5 -6 6 -1 11 2 17 5 13 3 -3 4 -12 1 -19z m-14 -33 c-3 -9 -8
-14 -10 -11 -3 3 -2 9 2 15 9 16 15 13 8 -4z m282 -749 c84 -23 121 -43 182
-100 69 -64 126 -155 154 -249 30 -96 24 -228 -13 -309 -46 -100 -150 -182
-248 -195 -42 -6 -52 -18 -22 -26 42 -11 -101 -5 -169 7 -155 28 -274 113
-342 245 -34 66 -65 167 -53 178 5 5 76 -141 76 -158 0 -11 85 -115 119 -147
33 -29 155 -88 201 -97 27 -5 22 0 -23 19 -149 62 -268 197 -312 351 -37 125
0 280 89 376 90 99 233 140 361 105z m-767 -210 c7 -192 -29 -304 -123 -381
-48 -40 -71 -41 -110 -7 -71 60 -99 229 -56 327 39 89 140 165 218 165 17 0
35 5 39 11 16 27 29 -18 32 -115z m1406 -216 c44 -12 95 -29 115 -40 48 -24
118 -101 141 -153 22 -52 32 -153 22 -232 l-8 -60 -7 105 c-9 137 -27 196 -78
254 -55 62 -109 92 -220 121 -52 13 -82 24 -68 25 14 0 60 -9 103 -20z m1924
-482 c-2 -6 -10 -14 -16 -16 -7 -2 -10 2 -6 12 7 18 28 22 22 4z m-1661 -30
c-3 -8 -6 -5 -6 6 -1 11 2 17 5 13 3 -3 4 -12 1 -19z m-620 -64 c74 -104 114
-194 120 -268 4 -44 2 -71 -6 -80 -7 -8 -10 -24 -6 -36 15 -49 -35 -127 -96
-149 -23 -8 -28 -6 -38 16 -8 17 -18 23 -34 21 -18 -2 -22 -9 -21 -35 1 -19
-3 -33 -10 -34 -6 0 -33 -4 -60 -8 -38 -7 -53 -5 -64 6 -12 12 -17 12 -33 -3
-17 -15 -22 -15 -70 1 -74 24 -229 103 -229 117 0 6 12 27 27 47 14 20 27 37
29 39 1 2 30 10 63 18 75 17 109 34 181 89 117 91 126 104 146 205 16 85 31
123 47 118 6 -3 31 -31 54 -64z m-449 -686 c28 -21 52 -42 52 -47 0 -4 -9 -16
-19 -25 -19 -17 -23 -17 -78 -1 -65 19 -83 30 -83 53 0 22 51 73 64 65 6 -4
35 -24 64 -45z m2152 -48 c24 -24 25 -45 4 -96 -32 -76 -51 -94 -100 -94 -84
0 -113 33 -89 101 9 23 27 58 41 76 22 30 30 33 75 33 36 0 54 -5 69 -20z
m-1974 -27 l54 -26 0 -62 c0 -68 -8 -80 -85 -127 -34 -21 -47 -23 -85 -16 -68
12 -90 27 -90 60 0 16 7 40 16 53 10 15 14 37 12 55 -4 23 -1 30 9 26 8 -3 30
10 51 29 20 19 43 35 50 35 7 0 38 -12 68 -27z m2181 -53 c31 -16 62 -30 69
-30 18 0 18 -24 -2 -91 -32 -106 -45 -129 -85 -149 -21 -11 -45 -20 -54 -20
-8 0 -15 -4 -15 -9 0 -18 -75 11 -108 42 -26 25 -32 38 -28 58 3 15 -2 35 -11
49 -14 19 -14 24 -2 31 8 4 28 35 44 68 42 88 95 103 192 51z m279 -16 c19 -5
22 -15 28 -106 8 -119 3 -131 -58 -124 -23 2 -47 5 -54 5 -7 1 -33 21 -57 45
-36 35 -45 51 -45 77 0 56 10 79 34 79 11 1 35 7 51 15 33 15 68 18 101 9z
m-2228 -91 c34 -26 33 -61 -3 -113 -57 -82 -108 -77 -152 17 -15 32 -28 60
-30 63 -2 3 9 18 23 34 25 26 32 28 81 24 33 -3 64 -13 81 -25z m907 -132 c3
-5 2 -12 -3 -15 -5 -3 -9 1 -9 9 0 17 3 19 12 6z m-690 -72 c38 -34 65 -77 65
-104 0 -34 -97 -105 -143 -105 -42 0 -96 26 -108 53 -9 20 -7 32 14 71 36 68
83 116 112 116 13 0 40 -14 60 -31z m260 -110 c22 -12 56 -37 76 -56 34 -33
37 -34 43 -15 8 23 23 28 119 37 84 9 97 0 97 -66 0 -26 4 -50 9 -54 12 -7 6
-117 -8 -143 -6 -11 -8 -21 -6 -24 2 -2 -24 -1 -60 3 -67 7 -111 31 -136 76
-12 23 -12 23 -26 3 -18 -25 -76 -55 -126 -64 -53 -10 -134 16 -183 58 -23 20
-44 33 -46 30 -5 -4 -18 40 -22 79 -2 9 20 41 48 71 28 29 57 60 64 69 19 25
107 22 157 -4z"/>
<path d="M1171 2553 c-53 -28 -72 -62 -78 -137 l-6 -66 40 -39 c37 -37 104
-63 120 -47 4 3 -1 22 -10 41 -9 20 -17 49 -17 65 0 35 40 85 76 94 32 8 91
-10 103 -32 19 -33 23 -2 5 35 -40 81 -159 125 -233 86z"/>
<path d="M1188 1983 c7 -3 16 -2 19 1 4 3 -2 6 -13 5 -11 0 -14 -3 -6 -6z"/>
<path d="M279 2537 c-30 -20 -34 -28 -37 -74 -3 -45 0 -53 24 -72 24 -19 64
-29 64 -16 0 3 -10 19 -22 36 -21 28 -21 32 -7 57 13 23 22 27 57 26 49 -1 52
8 16 41 -33 31 -52 31 -95 2z"/>
</g>
</svg>
